<mxfile host="app.diagrams.net" modified="2024-02-27T08:47:47.334Z" agent="Mozilla/5.0 (Windows NT 10.0; Win64; x64) AppleWebKit/537.36 (KHTML, like Gecko) Chrome/121.0.0.0 Safari/537.36" etag="dcH4ROtgskqkBPRQWpb7" version="23.1.7" type="device">
  <diagram name="Page-1" id="jpl1UN6T2NvMoYlgzmEo">
    <mxGraphModel dx="1125" dy="754" grid="1" gridSize="10" guides="1" tooltips="1" connect="1" arrows="1" fold="1" page="1" pageScale="1" pageWidth="827" pageHeight="1169" math="0" shadow="0">
      <root>
        <mxCell id="0" />
        <mxCell id="1" parent="0" />
        <mxCell id="wLy5ozxyyo9KdjMWLqLa-1" value="" style="shape=image;imageAspect=0;aspect=fixed;verticalLabelPosition=bottom;verticalAlign=top;image=data:image/png,iVBORw0KGgoAAAANSUhEUgAAAMgAAADICAYAAACtWK6eAAAABHNCSVQICAgIfAhkiAAAAAlwSFlzAAALEwAACxMBAJqcGAAADnBJREFUeJzt3Xm0XeMdxvHvvXEjIxFDDCERCUHUEEqXRIRSWqUkUdqIqxNlqaFK26VW6ISlg2pVDV0oVUpRaqrWXbSm0ipWl2hxRcQQLU2EFUmkf/zuleN0v/vs6ex3D89nrb1Wsu/e7/vec89z9nn3fve7QURERERERERERERKrMN3AyLqBDYB1gbW8NyWsuoF3vDdCMnOSOBEoAd4G1ilJdXyFLBxnD+AFNNg4CzgTfy/qaq2zEMhKbUtgSfx/0aq8qKQlNT2wCL8v4HqsCgkJbMx8BL+3zh1WhSSErkL/2+YOi4KSQtFOM17MPCbkJ+/ClwA3AY8D6zMo1EltzVwf8RtnwamAwvb1xxJ4yHcn3C3AyP8Na20JqEjSSVMxP1Hux8Y6K9ppRY3IApJQR1P8B/rXWA7j+0quyQBUUgCdHqufwfH+geBJ/JsiAB2HeoeFJL3+A7IRo71D+XaCmmkkDTwHZDBjvX/zbUV0kwh6eM7IEU4zSzBFBL8B0SKrfYhUUCklVqHRAGRKGobEgVEoqplSBQQiaN2IVFAJK5ahUQBkSRqExIFRJKqRUgUEEmj8iFRQCStSodEAZEsVDYkCohkpZIhUUAkS5ULiQIiWatUSBQQaYfKhEQBkXapREgUEGmn0odEAZF2K3VIFBDJQ2lDooBIXkoZEgVE8lS6kOh5f8F2Ao7FHgP3e+Bisps0exQwC9ilr/wlwGPADcAzGdVRZP0h0YTZEfQQPAXmXH9NYhqwrKk912RQ7prAOQFlN063ejmwTgZ1JZ16NM9F05xG0EPxAvInR5umpihzGHCvo9ygN84mKeqCcgREIYmgh2IFZIKjPauAWxOW2QH8OqTcoOURoCvpL0H4rPlFWwodEnXS36875GcfxT6Z49oXmBlzn8nA0Qnq6lem56GXruOepx6KcwTpBOY72tO/XJGg3FtalBn2yZpmatbFCevVkaSBjiCr7QVs2mKbwyNs02hAX7lJbAmMTrgvRH8EW1EU8kiigKzWHWGbLuCkGGWuDwxJ1BqzeYp9b0yxry+FC4kCYtbCHiYaxeeJfip2VbLmZOKXwOse60+qUCFRQMyhRP+kH4ZdRIxiEbA0UYtMmguHS4CzU+zvU6FC4lMPxeiku659uJZXgEERy74pZtn9yz/S/1p0AQ8nrL8Ii/eOu44gMB7YPeY+GwBHRdz2RzHL7nd+wv0aLQdmAAsyKMuHLbFhPt4oIHBkwv2+jJ2lauWPwFUxy34AuCx2i4K9gI17ejaj8vI2zGfldQ9IBzAn4b5bYJ/OUXwBuDvitk9iJwxWJGmUw7+AnbEr+lIiPfjtg+ztqD/q8kiMurqAM7BOe1BZK4CfAMNT/k6tTAfuwgZH+u5jRFl62vIqRFT34e7dKfefjIXsDxG2XQ6cBfwYOAj4ILAu9kTfx7DO/Isp2xPFPX3LJsA+wI59/x6K34eqjseOytKgB39HkOG4P83jLHfm0NY6mEsBjyB17oPMIt1V7n77AjtkUI4UUJ0D0p1hWadmWJYUSF0DsgUwJcPyDiXduCkpqLoG5Eiy7ZAOwK6LSMXUMSBprn2EOQpYrw3likd1DMh0YEwbyh0CHN+GchsNxO5qXL/N9UifOgYk6dCSKI4jmzNjQT6OXSd5AngZ+CnRhrpICnULyDCiDw9JYl3gc20odzvgWlZ/hesEjgHObUNd0qBuAZmFXTFup5PJdoTCUOA6YLCjriMyrEua1C0g3TnUMQb4ZIblXYhN4+NyMTYQUdqgTgEZR7rJ3+L4SkbldNP6jNsg7P7zURnVKQ3qFJCsr32E2R7YL2UZ22Cje6MYDVxPusnmJEBdAtKuax9h0gw/GYL1O+KcEZsCXJCiTglQl4BMA8bmXOd0bAb3JC4Atk2w39Gkm5FRmtQlIN2e6j0twT6zgc+kqPMCsh1nVmt1CMgw4s+Nm5WDsQmxo9oKuwCYRhfWH0kzK6P0qUNAZtL+ax8uncApEbcdhPU7spikYBR2h2LUqYnEoQ4B6fZc/xyinYI9H/hAhvVOBi7JsLxaqnpAxgJ7eG7DIOCEFtschs18krXZ2NV2SajqAcnz2keYL+KerWQC7Z0c7VxscgZJoMoB8XHtw2UEFpJma2L9jnZO9TMA+BU2kkBiqnJA9qBYb4q5wIEN/x+OzbiYx4QPI4Gb8TxLYRlVeV6sbt8NaDIYe5POwya/3pH2TxLXaBL2hKyZ2HQ6EkFVjyBD8Xfto5WtsKNbnuHodwhwuod6S6uqAZmJvk64nMn7v+pJiKoGpJ231ZZdB9b32dp3Q8qgigEZA+zpuxEFNxzrD43w3ZCiq2JAinLto+gmYM8xrOJ7IDNVe3E60NerOPYHvuO7EUVWtYBMpVjXPsrgNGyoiwSoWkC6fTegpC5DM9QHqlJAhlDcax9FNwQbHq8ZG5tUKSAz8HPxrSrGYM8wrPLoitiqFJBu3w2ogGnA2b4bUSRVCcgobJIESe9L6Ej8nqoEZEN07SMrXagv8p6qBOQp4N++G1ERLwLP+25EUVQlIMuwB9i87bshJbcEmwx7pe+GFEWVzljcgg2f2B+N5E3iDeB3wCLfDSmSKgUE7OvBpb4bIdVRla9YIm2hgIiEUEBEQiggIiEUEJEQCohICAVEJIQCIhJCAREJoYCIhFBAREIoICIhFBCREAqISAgFRCSEAiISQgERCaGAiIRQQERCKCAiIRQQkRAKiEgIBUQkhAIiEqKoE8eNAMb6bkQMq4ClwGu+GyLV0Qn8BXtzVWWZD5yJpj5NYi7Br2mPvyb5+4o1DLgD2NlT/e2yKXAG8Fdgc89tkQz4CshVwD6e6s7DBOAuYD3fDZF0fARkP+AgD/XmbTw24/xg3w2R5HwEZI6HOn3ZDTta6mxhSfn4w9XtedyHAN/z3QhJxkdAhnio07cTgRN8N0Li06E/P98HDvbdCIlHAclPJ3A11i+RklBA8jUYO7M13ndDJJqiDjWpsvWA27CvXLJaIS8ad3iosxcY46FeKadnganAQh+V6yuWFN044FFgoo/KFRApgw2BG4GBeVesgEhZTASOyLtSBUTK5JC8K1RApEwm5F2hAiJloj6ISJEoICIhFBCREAqISAgFRCSEAiISQgERCaGAiITQ/SDwDjaDX7OB/P/tAMsilrmqb/84H0ArgRUxtg/TFaPup4EngFeBd4G1sBu6dgLWzKg9EkMv/qcIbVxcN+o8FbDtoBi/Zwc2CnUv4HTg8RbtOC9G2a3c3aKul4GvYTNBugwBDgceblFWnktv4lekRHrx/0LnEZAgBwIvONqRV0AuJP7cwd3AkpAyKxsQ9UHy9VtgMvCkh7pXAccBxwJvxtz3cmBPYHG2TSo+BSR/r2JHkrhv0rTOxI4eST2KHUlqRQHx4znghznW9xDwzZCfb4/N2fUxYIOQ7W4Ebs2wXRKgF//fZbPug7zRtCzGOuXfAtZ17DOuqWxXH+SUgPJbLcubyt7dUfaGwH1N2y4HLsI9tHxHsn39C90H8aEX/6HIOiBh5T8ODHDsN79hO1dATk/5+93vKLcLeCRkv6sd+wE8kLJNpQmIvmK133a4Q/hcDvVf6Vh/DHbCwOVTwKEN/98Iuyf8Cjzc2eeLLhTmY2PH+rdyqPtOx/pjIuz7bWAKsDewTWYtKhEFJB8vONa3+/V/heCj1DiiveHHA8dn2qKSUUDa707su36QLSLsPx/4c4tthhL83JUnHNvvGqFeQQHJyt+b/v8OsAB7TuHPHfuMJ9qDPq/E3Y/otwPwt4D1zzi2HxuhXkEByUqSp2bl8UCdlxzr9XDRiBQQP3YlWic5rSWO9cMD1r0OnBWx3JHANxK1qGQUkPxNAm4mn9d+pWN90Kz+i4l+dX9zFBDJ2NrAycCpxBsVPBS7R6OD1W/sjqbFdRq5y7F+aYz6a00ByUbzd/qV2EXYUdg4p48AM4g/zBzgJMLHUYUZ6Vj/SsLyakcBycYi3w1w2Myx3nV2S5ooINW2rWP9gwHr1ga+2rRuBcFjxHw8mcwLBaTaJmF9mOY+x3zs4mXjGLERwHebtnuMbO90LB0NVnSf6clqAgWf1gCmO34W5SGiF2XYllKqU0DmAdOAFxvWrcI9Tirt/edF8WnH+muA60L2uxm4xPEzfcWqmCuxe7GXYmeTbsJuFroceC1g+0G4O7h5W4DdERjHCGCrvn/PwIaW9AZsNxsbzHgsqy8evoxdDzkPmwZIctZLfjfYLAHmBLRhDewUrMsBjvKS3DAVdcnyu35z+69vsX0XdvFvNNGODluQze+sG6YC5Pmp9BhwVcD6FYRfC8hjnFSeZhA+4cJy7EiyAHsjFlXuRzQfAcnjJqF+U4BzYu5zGPDhNrTFt58Bn0i479Cm//vqg+Q9E4yXgLyac32nAD/AfV94o4OAS9vbHG8GAjdgdwlGPQExFOun7dKmNsX1ct4V+uikz8N96rFdTgSmYm+O23j/HLudwIewcVKtHjM8DrvXox3WIrv7NFxT93QCX8f6ZRdifZN/Bmy3Efa17DSsX3JHU9s2yaidcT2Vd4U+DpWzgV94qLffMmyoxVLsU3UcwcO/62IR1vl9C5usenTfUkSHAdfmWaGPgKwPLKQ+p5glG+9gR7b/5Fmpjz7IIuB2D/VKud1KzuEAf2cjpgL3eqpbymk34l8wTc3XUJP7gFs81S3lcwMewgF+x9Rshl3IW8djG6T4XsNuOlvoo3KfgxXnY6cbXaNpRVZgZz29hAOiXTxrp6ex0bUHUKMRohLJu8Bnsa9XtTcLuy7hYwCcluItb2LPK5EG21CsB0Zq8bM8BExEAnVio07n4f8PpSXfZR5wJAW7ia+o3/s7gD2wsVF7Yp8oriceSTktx8ZW9WD9jHuxoBRKUQPSbAB2B+Bw8h+ikvdr5ONvkmedK7BZHF+iGvf9i4iIiIiIiIiIiEhx/Q8tviUviHSLsgAAAABJRU5ErkJggg==;" parent="1" vertex="1">
          <mxGeometry x="70" y="150" width="90" height="90" as="geometry" />
        </mxCell>
        <mxCell id="d0tCP2UhKTY_PtcrWjTo-1" value="" style="shape=image;verticalLabelPosition=bottom;labelBackgroundColor=default;verticalAlign=top;aspect=fixed;imageAspect=0;image=data:image/png,iVBORw0KGgoAAAANSUhEUgAAAMgAAADICAMAAACahl6sAAAAe1BMVEX///8AAAB/f3+/v78/Pz/4+Pjy8vIFBQU5OTlLS0sTExP6+vrKysro6Oh2dnYHBwempqYwMDAoKChRUVG3t7dhYWHQ0NAXFxdsbGyvr6/i4uJFRUV7e3vW1tbc3NxnZ2eQkJCYmJhZWVmHh4ccHBwhISGcnJw1NTUsLCz7FWr3AAAKKklEQVR4nO1da3uqMAwGJ6jIRed0U+fd7ez//8IDCti0SS/c6vbwftvEpC9J2iQt6Dg9evTo0aNHjx49nh7e+jJgcdrZHlE1HAOXx3Zje1AV8CHQSPG+tz0sY8wwHq47tz0uY7ziRNy17YEZYk/wcJe2R2YIwrN+n2/FFJGRZ3toZthSRNzQ9tDMIK4hBU62h2YEMtZ/W7STsf7bop2M9d8W7Vs48s9njvbpW7yM34gP2VhPfWmtEe2b4+FwtJBUhvcc5Ae9vyDWD+kgldHuxaOb9eJpu8MW8JYUjhMjPg9iPbMAZyEBYZmaTboNoZJHilfRKCDWs4+5mOHgsdd3yoTlgRlFGLfAjEUIM+UOmUAerhgpgidJot0TpurOmAg8eKOAWF/i/ykQIoVLR0wQHpxRTuL9Z2306pdXiubojgnO42GU6ALv8Z0gyIaT88tdFmaOrphQPHKjhOcRx+8+JP7Ovx79Yu2ww0TCIx30h1iG5KuGmEUGn5Q5umASynigyCNbktcTWLTJYyq9iSiKuZautCjMWiTyZjyacvWja18K4xaJ8CH7pRxNUrj6QH3pFf7dZuGyhKqO0wE979zxUXx1r7ry3yriHDdqjwi0yFeacq/m0tFdH4ORmyS5TLmFtFWLcDEySP8lNcoXu5EgKX9Tc6QXRHBCGLbHw3F+4D3L1NNGmV/gPQ3PxNR1M4fjLOB/W+0Sh/D2z28DwIySnGeYi4cDZAKf3+4Hv2a2uo4I/jG4/5c3yvzbJyWEB7io5ubgHStoMdQzePCO3p2LM8r2RS7DHzBjzs0hOFaby+ENqHM5jFHmChoZ/DiB5ujasTLgzpUa5Zgtj6/felL255RKsihntY4dKwPhXBk2K1L/yyJwgwVbEXu7HTOpde1YGSjnkqEw4yfxefeOxY6Kdy4aj1X9A/3cgmNl8LBlUQY2z0KZ2HCsDKbOBdIshIkdx8rAOddRcfkEXC0w8e04VgbOub6QSzbry3KxHd7ApVg8k5Mlx8rAORe/G/BykJZcHJOzLcfKAE+agHD3TsrCEc7CwPOSDh0rAyzBWeXf7yoaLtfHXtIftY4Q6H59fLAfa9Bw3TMrDE5a3boWdOtHfjXT7Hu9s8I82HXo8iRUBGL9sQWlbpXkGAFx0CRxh0QuQHOZt6NnzdQWcZx/4LMOtxFBArwt/vvpauMM5cGmBrVV3Dj2J9Qg8L9y8FMTWGC7OOSxn8Vbbp0uImRl0N8WEmZwE4J2fQvhcEM+ZZn0t8W80Qd3QaNYbpZDhiTvl1zEj0avY2mu5a1eSgzZCw4vKlQ6QTyT3us8bCPesZLDS1nJotlvtDTea2HwfjH2P8WcmueqfD/0g81asHpkp5PJyDCkW2cojgp59wFDH3cD6OUbsUL01TsSKoyNmHiKnaZ8zjpBHrwLPwLoQ/hPR0zWCmGX+2UgVkdiAlusleW8K9+NaIGJ4s593QPax8gBhOd39/38YFgn0CsxkaeB19yHgN2uOvNJIzxMmMiIJOXUBOaso47chojoMyGIjObLU/joeIK+lFat2hQRbSYiEY7DDeySqXcctjEiukwAkdH8IHC4gZ2j9XLX5ohoMgFEyG1Wdg7SK/AaJKLHBBAhr2IrX6rhThNZKnPEDDWZACKfa+JcLutaeL9dRkSjne/IbajBhA/2YBuvxTYH2waZdEBE2EVWM0Gn35TNDLBhm1lBB0RioXumZEIviMF2UJIBvUKt+q4ekYFvzESaooyKIYBcX6tVWJOIY8xE0XLL59oV+KdO97YuEWMmJzmRYtCg3JtrHOupTcSUyU5BJC/ZYT2ssbjXJ4Ixkd1BxRG+fI6C3Xn3oMzkGyCCMJGtYRtFkyD3LU7mUPVESxNERCYjWea9l1eluUz+2GYSy6k0QkRkIt9/XC9/6FNyxSaPuMEz/py9kV21ekTK7GzN9UawKhvAC0/LOc4m962V6vClC7pq9YiQ0BOFsznkn2ptKpRdNatESjagh1o0f6dDSjqLYmPEPpEMsK9YfDnSah6Gz0QE7oUGhbvsddq58VMRgZNtWdzuroR8BpOnIgI3EZMynd+oO6GViWj1Jo2JwB79Y2vTU27sVnYtrW6xMRF4MilhkrUXxRZc5WDX6t8bE+FWDXbNnh5lkVJ9+tXaUTEmwh01hfsh0xmZMtdYELWmEmMicKctEeqAaLaci9F5PdZIUVKhB2XAmxLhyg+iSt/swgaTxgzsPjDauTMkwjlWUmGzuJY/NCaK28JV5s7Nam9OFOdYWkexm9PenCjesZTnlxvV3qCoBhzrKYhwjvWvdCz/dJ4sZ5qPqtknQs5Ys3vWctU6f7yvqB1DRVGEY0WP/dCxsosdfYwqasdQTRThWDOQRI7Xsolsxy/QNojgjhVxj02kDhYTc5n/LZb2NoigjjVDD958HdZ8U3l1GWJNIwtENnAcN8cSzVEiOLJf3lNtFka7HyLJlOIEXRUisDC8ORZujgJMV3lHXlhqX+k/9F6r1+c4ByDsGsnMcUf5wO30h7ym0D7TaFY+UKe04Yi4ryflCxDKAx2Sd6AVz8ka8ahTbKrPBSIomvJL+pJcu/HLFCqX/0Kw66DwLUlPIt+2MRZduSHjyB+ux5Gf6JAN8649lFyBY1uDyHRCSb0BqanzhpzsKElVIpV7fRk8GZNFFAqzWL7JKIsuG64lYxLc8t59zM1k92iHsT4CXXALwS5jsig2IqdrsITfo51dRZJLhGk3edwhQ53pl2YSsGUICIhbtAO/mRDadR/QuqPWgkgyWYB9YWHYIjVU+0o+lbC41ktRCCYBXxWyjnR7nArE+prW3lXSiDNZCNv0ILQ32D/qaOdQSxTDRDCHgxiANVFQW3uDRByvWDBEczhcSKTCPTa1mTwVkXSOGafrwRB/Lw4f7WDV/mxCO4P6oryIbGJx0S642nMRkQAEdzwAT35uaO0+97MSJNjfm2iViCS1CmjtyM9KkHj83kSrRCTJ7oTUrv+ob4by9yZaJSJJZT8p7ZJiGEVRRbdKRFIQrintdHdCKqllInSJviG0b6gvkFh2QYSM9oDSLqshcdQpdbVBDousT81L3UUXRDyqtrhQ2slvkCBFNYoDrjzZkNqJb5CQiGoSEX7gotgYQrQT3yAhEdUodtghmPK5JUw7+g0SUlGNwr9wx1HYR1xR7cI3SChFdYYGtfdEGkFPpFVRdrX3RBoBrj38yN9ap8L55CtE2STiq3ZWWQRvMlFWiUz1XpZWYPRGi7JLxPQNI+/+kxIxfnXN6TmJqJ54FHF+TiJPWuqaE/kzFvkzMfJ3Zi29x+ZKPO864vjwfZwKezzvyp4ijP9ErmVflF3tPZFG0BNpVZRd7c9DpEH0RHoiPZGeSEswP9KthWqP4NVB/bfkouj0lzJuMDt3oouuf2EixaaZ18ty6PJHAAqsW4iSoZXfsFe9HMIYCfa75N1QOeodl9PCBf21vx49evTo0aNHjx4t4T8Pv442yDarUgAAAABJRU5ErkJggg==;" vertex="1" parent="1">
          <mxGeometry x="360" y="150" width="90" height="90" as="geometry" />
        </mxCell>
      </root>
    </mxGraphModel>
  </diagram>
</mxfile>
